<svg xmlns="http://www.w3.org/2000/svg" xmlns:xlink="http://www.w3.org/1999/xlink" viewBox="0 0 28 28" style="enable-background:new 0 0 28 28;"><linearGradient id="SVGID_sms_" gradientUnits="userSpaceOnUse" x1="13.9999" y1="26.3333" x2="13.9999" y2="6.6255" gradientTransform="matrix(1 0 0 -1 0 30)"><stop offset="0" style="stop-color:#FFC044"/><stop offset="1" style="stop-color:#EF9F00"/></linearGradient><path style="fill-rule:evenodd;clip-rule:evenodd;fill:url(#SVGID_sms_);" d="M3.5,3.7h21.1c0.6,0,1.2,0.2,1.6,0.7c0.5,0.4,0.7,1,0.7,1.6c0,0.7-0.2,1.4-0.7,2.1c-0.5,0.7-1.1,1.2-1.7,1.7c-2.3,1.6-4.1,2.8-5.3,3.6c-0.7,0.4-1.1,0.8-1.4,1c0,0-0.1,0.1-0.2,0.1c-0.1,0.1-0.2,0.2-0.4,0.3c-0.3,0.2-0.6,0.4-0.8,0.5c-0.2,0.1-0.5,0.3-0.7,0.5c-0.3,0.2-0.6,0.3-0.8,0.4c-0.3,0.1-0.5,0.1-0.7,0.1h0h0c-0.2,0-0.5,0-0.7-0.1c-0.3-0.1-0.5-0.2-0.8-0.4c-0.3-0.2-0.5-0.3-0.7-0.5c-0.2-0.1-0.5-0.3-0.8-0.5c-0.2-0.1-0.3-0.2-0.4-0.3l0,0c-0.1-0.1-0.2-0.1-0.2-0.1c-0.4-0.3-0.9-0.6-1.4-1c-0.7-0.4-1.4-1-2.3-1.6C4.9,10.6,4,10,3.6,9.7C3,9.3,2.5,8.8,2,8.1C1.4,7.4,1.2,6.8,1.2,6.2c0-0.7,0.2-1.3,0.6-1.8C2.2,3.9,2.7,3.7,3.5,3.7z M25.4,11.2c-2,1.3-3.6,2.4-5,3.3l6.4,6.3V10C26.4,10.5,25.9,10.9,25.4,11.2z M1.2,10c0.4,0.5,0.9,0.9,1.4,1.2c2,1.3,3.7,2.5,5,3.3l-6.4,6.3V10z M26,22.8c-0.4,0.4-0.9,0.6-1.5,0.6H3.5c-0.6,0-1.1-0.2-1.5-0.6l7.3-7.1c0.2,0.1,0.4,0.2,0.5,0.4c0.5,0.4,1,0.7,1.3,0.9c0.3,0.2,0.8,0.4,1.4,0.7C13,17.9,13.5,18,14,18h0h0c0.5,0,1-0.1,1.6-0.3c0.6-0.2,1-0.5,1.4-0.7c0.3-0.2,0.8-0.5,1.3-0.9c0.2-0.1,0.3-0.2,0.5-0.4L26,22.8z"/></svg>