<svg xmlns="http://www.w3.org/2000/svg" xmlns:xlink="http://www.w3.org/1999/xlink" viewBox="0 0 28 28"><linearGradient id="SVGID_call_" gradientUnits="userSpaceOnUse" x1="13.9646" y1="28.0236" x2="14.0311" y2="5.9077" gradientTransform="matrix(1 0 0 -1 0 30)"><stop offset="0" style="stop-color:#8AD336"/><stop offset="1" style="stop-color:#509600"/></linearGradient><path style="fill-rule:evenodd;clip-rule:evenodd;fill:url(#SVGID_call_);" d="M6.8,2.1c0.1,0,0.4,0.2,0.5,0.2c0.8,0.5,2.9,3.2,3.5,4.5c0.4,0.8,0.5,1.3,0.4,1.7C11.1,9,10.9,9.3,10,10c-0.4,0.3-0.7,0.6-0.8,0.7c-0.1,0.2-0.3,0.6-0.3,0.9c0,0.7,0.4,1.9,1,2.8c0.4,0.7,1.2,1.6,2,2.3c0.9,0.8,1.7,1.4,2.6,1.8c1.2,0.6,1.9,0.7,2.4,0.5c0.1-0.1,0.3-0.1,0.3-0.2c0,0,0.3-0.4,0.7-0.8c0.6-0.8,0.8-0.9,1.2-1.1c0.6-0.2,1.1-0.1,1.7,0.2c0.4,0.2,1.4,0.8,2,1.2c0.8,0.6,2.5,2,2.8,2.2c0.4,0.5,0.5,1.1,0.2,1.9c-0.3,0.8-1.4,2.2-2.2,2.8c-0.7,0.5-1.2,0.8-1.9,0.8c-0.6,0-0.8,0-1.5-0.3c-5.6-2.3-10-5.7-13.5-10.4c-1.8-2.4-3.2-5-4.2-7.6c-0.6-1.5-0.6-2.2-0.1-3c0.2-0.3,1-1.1,1.7-1.6c1-0.8,1.5-1,1.9-1.1C6.1,2,6.6,2,6.8,2.1z"/></svg>