<svg xmlns="http://www.w3.org/2000/svg" xmlns:xlink="http://www.w3.org/1999/xlink" viewBox="0 0 28 28"><ellipse style="fill:#FFFFFF;" cx="14.2" cy="10.3" rx="5.2" ry="5.2"/><linearGradient id="SVGID_maps_" gradientUnits="userSpaceOnUse" x1="14" y1="28" x2="14" y2="5" gradientTransform="matrix(1 0 0 -1 0 30)"><stop offset="0" style="stop-color:#07D8F8"/><stop offset="1" style="stop-color:#00A0D2"/></linearGradient><path style="fill:url(#SVGID_maps_);" d="M14,2c-5,0-9,3.7-9,8.3c0,5.7,8.1,14.1,8.4,14.4c0.3,0.3,0.9,0.3,1.2,0C14.9,24.4,23,16,23,10.3C23,5.7,19,2,14,2z M14,14.5c-2.5,0-4.5-1.9-4.5-4.2c0-2.3,2-4.2,4.5-4.2s4.5,1.9,4.5,4.2C18.5,12.6,16.5,14.5,14,14.5z"/></svg>