<svg xmlns="http://www.w3.org/2000/svg" xmlns:xlink="http://www.w3.org/1999/xlink" viewBox="0 0 28 28"><path style="fill:#FFFFFF;stroke:#F5F6FA;stroke-width:0.5;" d="M5.5,3h17c1.8,0,3.2,1.5,3.2,3.2v15.5c0,1.8-1.5,3.2-3.2,3.2h-17c-1.8,0-3.2-1.5-3.2-3.2V6.2C2.2,4.5,3.7,3,5.5,3z"/><linearGradient id="SVGID_zalo_" gradientUnits="userSpaceOnUse" x1="13.9872" y1="27.25" x2="13.9872" y2="4.3816" gradientTransform="matrix(1 0 0 -1 0 30)"><stop offset="0" style="stop-color:#3A8BFF"/><stop offset="1" style="stop-color:#035ADA"/></linearGradient><path style="fill-rule:evenodd;clip-rule:evenodd;fill:url(#SVGID_zalo_);" d="M7.9,25.6L7.9,25.6L7.9,25.6c0.5,0,0.9,0,1.4,0l0,0l0,0c0.1,0,0.2,0,0.3,0h7.6c0.6,0,1.3,0,1.9,0h0c1.3,0,2.5,0,3.8,0h0c1.7,0,3.2-1.4,3.1-3.2v-3.1c0,0,0,0,0-0.1c0-0.1,0-0.2,0-0.2c-0.1,0-0.2,0-0.3,0.1c-0.4,0.3-0.8,0.6-1.2,0.9l0,0c-0.8,0.6-1.6,1.2-2.4,1.6c-3.4,1.1-6.4,1.2-9.6,0.4C12.2,22,12.2,22,12,22h0l0,0c-0.1,0-0.2,0-0.4,0c0,0,0,0-0.1,0h0c-0.3,0-0.8,0-1.3,0.4c-1.3,0.4-3,0.4-3.9,0.3c0,0,0,0,0,0l0,0l0,0c0,0,0,0,0,0c0,0-0.1-0.1,0-0.1c0,0,0,0,0.1,0c0,0,0.1-0.1,0.1-0.1c0.7-0.4,1.3-0.9,1.8-1.6c0.6-0.7,0.3-1-0.2-1.5l0,0c-2.5-2.5-3.2-5.2-3-8.8c0.3-2,1.2-3.7,2.5-5.2C8.4,4.3,9.3,3.6,10.4,3c0,0,0,0,0.1,0c0.1,0,0.1,0,0.1-0.1c0-0.1-0.1-0.1-0.1-0.1c-0.6,0-1.2,0-1.8,0c-1.2,0-2.3,0-3.5,0C3.5,2.8,2,4,2,6C2,9.7,2,13.3,2,17c0,1.8,0,3.6,0,5.5c0,1.7,1.3,3.1,3,3.2C6,25.6,6.9,25.6,7.9,25.6L7.9,25.6L7.9,25.6z M6.4,22.8L6.4,22.8c0.1,0.1,0.2,0.2,0.3,0.3C6.5,23,6.5,22.9,6.4,22.8L6.4,22.8z M9,25.3C9,25.3,9,25.3,9,25.3L9,25.3L9,25.3C9,25.3,9,25.3,9,25.3z M10.1,13.9c0.3,0,0.5,0,0.8,0c0.5,0,1,0,1.5,0c0.4,0,0.6,0.2,0.7,0.5c0,0.4-0.2,0.7-0.6,0.7c-0.6,0-1.3,0-1.9,0c-0.2,0-0.4,0-0.6,0c-0.1,0-0.1,0-0.2,0h0h0c-0.2,0-0.3,0-0.5,0c-0.3,0-0.6-0.1-0.7-0.4c-0.1-0.3,0-0.6,0.2-0.9c0.8-1,1.6-2.1,2.4-3.1c0-0.1,0.1-0.1,0.1-0.2c0-0.1-0.1-0.1-0.1-0.1c0,0,0,0-0.1,0c-0.3,0-0.6,0-0.9,0c-0.3,0-0.6,0-0.9,0c-0.1,0-0.3,0-0.4,0c-0.3-0.1-0.5-0.4-0.4-0.7c0-0.2,0.2-0.4,0.4-0.4c0.1,0,0.3,0,0.4,0c0.9,0,1.9,0,2.8,0c0.2,0,0.3,0,0.5,0.1c0.4,0.1,0.5,0.5,0.4,0.8c-0.1,0.3-0.3,0.6-0.5,0.8h0c-0.7,0.9-1.4,1.7-2.1,2.6C10.2,13.7,10.2,13.8,10.1,13.9z M16.2,11.1c0.1-0.2,0.3-0.3,0.5-0.4c0.4-0.1,0.8,0.2,0.8,0.6c0,1,0,2.1,0,3.1c0,0.3-0.2,0.5-0.4,0.6c-0.3,0.1-0.6,0-0.7-0.2c-0.1-0.1-0.1-0.1-0.3,0c-0.5,0.4-1,0.5-1.6,0.3c-0.9-0.3-1.3-1-1.4-1.9c-0.1-1,0.2-1.8,1.1-2.3C14.8,10.5,15.5,10.6,16.2,11.1z M15.3,11.9c0.1,0,0.2,0,0.2,0c0.2,0.1,0.3,0.2,0.4,0.3c0.3,0.4,0.3,1.1,0,1.4c-0.1,0.1-0.1,0.1-0.2,0.2C15.6,14,15.4,14,15.2,14c-0.2,0-0.4-0.1-0.5-0.2c-0.1,0-0.1-0.1-0.2-0.2c-0.1-0.2-0.2-0.4-0.2-0.6C14.3,12.3,14.7,11.9,15.3,11.9z M19.8,13.1c0-1.3,0.8-2.3,2.1-2.4c1.3,0,2.3,0.9,2.3,2.2c0,1.3-0.8,2.3-2,2.4C20.9,15.4,19.8,14.4,19.8,13.1z M21.1,13c0,0.3,0.1,0.5,0.2,0.7l0,0c0,0.1,0.1,0.1,0.1,0.1c0.1,0.1,0.2,0.1,0.2,0.1c0.2,0.1,0.4,0.1,0.6,0c0.1-0.1,0.3-0.1,0.4-0.3l0,0l0,0c0.1-0.2,0.2-0.5,0.2-0.7c0-0.2-0.1-0.5-0.2-0.7c0,0,0-0.1-0.1-0.1c-0.1-0.2-0.4-0.3-0.6-0.3c0,0-0.1,0-0.1,0C21.5,11.9,21.1,12.3,21.1,13C21.1,12.9,21.1,12.9,21.1,13L21.1,13z M19.3,12c0,0.3,0,0.5,0,0.8c0,0.5,0,1.1,0,1.6c0,0.4-0.3,0.7-0.7,0.7c-0.1,0-0.1,0-0.2,0c-0.3-0.1-0.5-0.3-0.5-0.7v-4.2c0-0.1,0-0.2,0-0.2c0-0.2,0-0.3,0-0.5c0-0.4,0.3-0.7,0.6-0.7c0.4,0,0.7,0.3,0.7,0.7c0,0.5,0,1.1,0,1.6v0v0C19.3,11.5,19.3,11.8,19.3,12z"/></svg>