<svg xmlns="http://www.w3.org/2000/svg" viewBox="0 0 54 33"><defs/><g fill="none" fill-rule="evenodd"><g fill="#979797"><path d="M18.99796954 3H37v9.99857422c-.6680203.01167968-1.336802.00152348-2.0050761.00507808V16H17V4.99875h1.99796954V3zm1.00126904.99988281c-.00076142.33185547-.00025381.66396485-.00025381.99582031 3.69619289-.00101562 7.39238583-.0002539 11.08883253-.00050781 1.3015228.00482422 2.6032995.00558594 3.9050761.00507813-.0005076 2.33314453.0032995 4.66628906.0020305 6.99943359a326.54300564 326.54300564 0 00.9974619 0c.001269-2.66576172-.001269-5.33152344.001269-7.99728516-1.0515228-.00558593-2.1032995-.00076171-3.1548223-.00253906-4.2799493 0-8.55989849.00025391-12.83959392 0zm-1.9997462 2.00052735C18 6.60978516 17.99923859 7.21941406 18 7.82904297c.84213198-.29630859 1.53020305-.98769531 1.82893401-1.82863281-.60964467-.00076172-1.21954315-.00050782-1.82944162 0zm2.87182742.00076171c-.16497462.64263672-.49467005 1.24134766-.94720812 1.72605469-.51548224.55478516-1.19137056.95748047-1.92436549 1.14664063 0 1.08417969-.00076142 2.16810547.00025381 3.25228515.63502538.16478516 1.22817259.48775391 1.70964467.93335936.56319797.517461.9715736 1.1997071 1.16294416 1.9400977 3.41598985.0005078 6.83197967.0007617 10.24822337 0 .163198-.6304492.4822335-1.2197656.9228426-1.6991406.5182741-.56925786 1.2043147-.98185552 1.9494924-1.17431646.0005076-1.08392578.0002538-2.16785156.0002538-3.25177734-.5639594-.14751953-1.0956853-.41691406-1.5444162-.78939453-.6464467-.5319336-1.1200508-1.2715625-1.3269036-2.08330078-3.4170051-.00304688-6.83375633-.00203125-10.2507614-.00050782zm11.2936548-.00126953c.2964467.8409375.985533 1.53460938 1.8284264 1.82736329 0-.60886719-.0002538-1.21798829 0-1.82685547-.6093908-.00101563-1.2190355 0-1.8284264-.00050782zM17.9997462 14.9998633c.60964466-.0002539 1.21928933.0012695 1.82918781-.0007617-.29847716-.8414453-.98756345-1.5308008-1.8286802-1.8291407-.00126904.6101368-.00050762 1.2200196-.00050762 1.8299024zm14.1642132 0c.6098985.0002539 1.2195431.0002539 1.8291878-.0002539a2189.79426802 2189.79426802 0 000-1.8260938c-.8436548.2909766-1.530203.9869336-1.8291878 1.8263477z"/><path d="M25.68375635 7.01958984c.59898477-.07541015 1.21852791.07210938 1.72766495.39431641.5781726.35978516 1.0101523.92193359 1.2769036 1.54298828.4098985.97601563.4088832 2.11732422-.0025381 3.09257813-.1736041.39939453-.4121827.7721289-.7159898 1.08494144-.361929.3717187-.8208122.6540625-1.32512695.7827929-.54568528.1419336-1.13654822.0980078-1.65609137-.1206054-.55329949-.2292774-1.01979695-.6421289-1.35025381-1.13851566-.82588832-1.22509766-.85406091-2.93185547-.08147208-4.18894531.3284264-.54132813.81040609-.99785157 1.39492386-1.25023438.23274112-.10105469.47994924-.16884766.7319797-.19931641zm.08527918.99734375c-.35532995.05382813-.68654822.2272461-.94949238.46998047-.36598985.33541016-.61040609.79015625-.73045686 1.26902344-.15812182.64136719-.11065989 1.3365625.15558376 1.94263672.17944163.40599609.46192893.77390625.83629442 1.01765625.29619289.19347656.65228426.30367183 1.00761421.28056641.4286802-.02488282.83274112-.23333985 1.13578682-.5319336.4035533-.39482422.6477157-.93386719.7332487-1.48789062.0949239-.62308594.0055838-1.28019532-.2888325-1.8403125-.2005076-.38136719-.4997462-.71855469-.88020302-.92650391-.30812183-.17011719-.67005076-.24679687-1.01954315-.19322266z"/></g><g fill="#F2F2F2"><path d="M19.99923886 3.99988244c4.27969543.0002539 8.55964464 0 12.83959394 0 1.0515228.00177734 2.1032995-.00304688 3.1548223.00253906-.0025381 2.66576172 0 5.33152344-.001269 7.99728516a326.54307111 326.54307111 0 01-.997462 0c.0012691-2.33314454-.002538-4.66628907-.0020304-6.9994336-1.3017767.00050781-2.6035533-.0002539-3.9050762-.00507812-3.69644666.0002539-7.39263955-.00050781-11.08883244.00050781 0-.33185547-.00050762-.66396484.0002538-.99582031zm-1.99974619 2.00052734c.60989848-.00050781 1.21979695-.00076172 1.82944162 0-.29873096.8409375-.98680203 1.53232422-1.828934 1.82863281-.00076143-.6096289 0-1.21925781-.00050762-1.82863281z"/><path d="M20.87132008 6.0011715c3.41700508-.00152344 6.83375635-.00253906 10.25076142.00050781.2068528.81173828.6804569 1.55136719 1.3269036 2.08330078.4487309.37248047.9804568.641875 1.5444162.78939453 0 1.08392579.0002538 2.16785157-.0002538 3.25177735-.7451777.19246094-1.4312183.60505859-1.9494924 1.17431641-.4406091.47937499-.7596447 1.06869142-.9228426 1.69914062-3.41624369.0007617-6.83223354.0005078-10.24822338 0-.19137056-.7403906-.5997462-1.42263672-1.16294417-1.94009766-.48147208-.44560547-1.07461929-.76857422-1.70964467-.93335937-.00101522-1.08417969-.0002538-2.16810547-.0002538-3.25228516.73299492-.18916015 1.40888325-.59185547 1.92436548-1.14664062.45253807-.48470703.7822335-1.08341797.94720812-1.72605469zm4.81243655 1.01841797c-.25203046.03046875-.49923858.09826172-.7319797.1993164-.58451776.25238282-1.06649746.70890625-1.39492385 1.25023438-.77258884 1.25708984-.74441625 2.96384766.08147208 4.18894531.33045685.49638672.79695431.90923828 1.3502538 1.13851563.51954315.21861331 1.1104061.26253911 1.65609138.12060547.50431472-.12873047.96319796-.41107422 1.3251269-.78279297.30380706-.3128125.54238576-.68554688.71598986-1.08494141.4114213-.97525391.4124365-2.1165625.0025381-3.09257812-.2667513-.62105469-.69873101-1.18320313-1.2769036-1.54298829-.50913705-.32220703-1.1286802-.46972656-1.72766497-.3943164zm6.48121827-1.0196875c.6093909.00050781 1.2190355-.00050781 1.8284264.00050781-.0002538.60886719 0 1.21798828 0 1.82685547-.8428934-.29275391-1.5319797-.98642578-1.8284264-1.82736328z"/><path d="M25.76903582 8.01693322c.34949238-.05357422.71142132.02310547 1.01954314.19322266.38045686.20794921.67969544.54513671.88020305.9265039.29441624.56011719.38375639 1.21722656.28883249 1.8403125-.085533.55402344-.32969543 1.09306641-.73324873 1.48789063-.30304569.29859375-.7071066.50705078-1.13578681.53193359-.35532994.02310547-.71142132-.08708984-1.00761421-.28056641-.37436548-.24375-.65685279-.61166015-.83629441-1.01765625-.26624366-.60607421-.31370559-1.30126953-.15558376-1.94263671.12005076-.47886719.364467-.93361329.73045685-1.26902344.26294416-.24273438.59416244-.41615235.94949239-.46998047zm-7.76928934 6.98292968c0-.6098828-.00076142-1.21976562.00050761-1.82990234.84111675.29833985 1.53020305.98769534 1.8286802 1.82914064-.60989847.0020312-1.21954314.0005078-1.82918781.0007617zm14.16421322 0c.2989847-.8394141.985533-1.53537109 1.8291878-1.82634765a2189.7941481 2189.7941481 0 010 1.82609375c-.6096447.0005078-1.2192893.0005078-1.8291878.0002539z"/></g><path fill="#333" d="M9.24316406 28v-5.6293945h2.04345704v-.7119141H6.40869141v.7119141h2.04345703V28h.79101562zm4.05615234 0v-6.3413086h-.7910156V28h.7910156zm5.5458984-.7119141h-3.1376953v-2.1796875h2.9750977v-.703125h-2.9750977v-2.0346679h3.1376953v-.7119141h-3.9287109V28h3.9287109v-.7119141zm-2.390625-7.2333984l-1.2919921 1.0239258h.9755859l.7119141-.5932617h.0703125l.711914.5932617h.975586l-1.2919922-1.0239258h-.8613282zm2.3378907-.1977539l-.9667969-1.0634766h-.9492188l1.0810547 1.0634766h.834961zM21.0600586 28v-4.9174805h.0703125L24.5712891 28h.7690429v-6.3413086h-.7822265V26.59375h-.0703125l-3.440918-4.9350586h-.769043V28h.7822266zm14.6865234 0v-6.3413086h-.918457l-2.1708984 5.2470703h-.0703125l-2.1708985-5.2470703h-.918457V28h.7382812v-4.8427734h.0527344l1.9995117 4.7988281h.6679688l1.9995117-4.7988281h.0527344V28h.7382812zm5.7392578 0h.8305664l-2.3378906-6.3413086h-.7822265L36.8583984 28h.8305664l.6372071-1.8149414h2.5224609l.0966797.2746582c.0644534.1831064.1384273.3940418.2219238.6328125s.1574704.4497061.2219239.6328125L41.4858398 28zm-1.9335937-5.3173828h.0703125l.9931641 2.8300781H38.559082l.1010742-.2856445c.0673832-.1904307.150146-.4262681.2482911-.7075196l.2944336-.84375c.098145-.2812514.1809078-.5170888.248291-.7075195l.1010742-.2856445zM37.987793 19.769043c0 .3925801.1428208.7089831.4284668.9492187.2856459.2402356.6760229.3603516 1.1711425.3603516.4980494 0 .8891588-.120116 1.1733399-.3603516.2841811-.2402356.4262695-.5566386.4262695-.9492187h-.6767578c0 .2314464-.0820304.4160149-.2460937.5537109-.1640634.137696-.389647.206543-.6767579.206543-.2841811 0-.5090323-.068847-.6745605-.206543-.1655282-.137696-.248291-.3222645-.248291-.5537109h-.6767578zm1.5996093 9.9975586c.1464852 0 .271728-.0520015.3757325-.1560059.1040044-.1040044.1560058-.2292473.1560058-.3757324 0-.1464851-.0520014-.271728-.1560058-.3757324-.1040045-.1040045-.2292473-.1560059-.3757325-.1560059-.1464851 0-.271728.0520014-.3757324.1560059-.1040044.1040044-.1560058.2292473-.1560058.3757324 0 .1464851.0520014.271728.1560058.3757324s.2292473.1560059.3757324.1560059zM45.8671875 28v-5.6293945h2.043457v-.7119141h-4.8779297v.7119141h2.0434571V28h.7910156z"/></g></svg>