<svg xmlns="http://www.w3.org/2000/svg" viewBox="0 0 54 33"><defs/><defs><linearGradient id="a" x1="-57.5458871%" x2="232.407984%" y1="50.1046875%" y2="50.1046875%"><stop offset="0%" stop-color="#007940"/><stop offset="22.85%" stop-color="#00873F"/><stop offset="74.33%" stop-color="#40A737"/><stop offset="100%" stop-color="#5CB531"/></linearGradient><linearGradient id="b" x1=".18254454%" x2="100.273469%" y1="49.9583524%" y2="49.9583524%"><stop offset="0%" stop-color="#007940"/><stop offset="22.85%" stop-color="#00873F"/><stop offset="74.33%" stop-color="#40A737"/><stop offset="100%" stop-color="#5CB531"/></linearGradient><linearGradient id="c" x1="-62.8149648%" x2="253.65625%" y1="49.8288352%" y2="49.8288352%"><stop offset="0%" stop-color="#007940"/><stop offset="22.85%" stop-color="#00873F"/><stop offset="74.33%" stop-color="#40A737"/><stop offset="100%" stop-color="#5CB531"/></linearGradient><linearGradient id="d" x1=".17207684%" x2="101.807183%" y1="50.0041858%" y2="50.0041858%"><stop offset="0%" stop-color="#1F286F"/><stop offset="47.51%" stop-color="#004E94"/><stop offset="82.61%" stop-color="#0066B1"/><stop offset="100%" stop-color="#006FBC"/></linearGradient><linearGradient id="e" x1="-.57884187%" x2="98.1287584%" y1="49.912603%" y2="49.912603%"><stop offset="0%" stop-color="#6C2C2F"/><stop offset="17.35%" stop-color="#882730"/><stop offset="57.31%" stop-color="#BE1833"/><stop offset="85.85%" stop-color="#DC0436"/><stop offset="100%" stop-color="#E60039"/></linearGradient></defs><g fill="none" fill-rule="evenodd"><path fill="url(#a)" d="M1.94375703 14.3622047h2.26771654c.0647919 0 .215973-.0215973.2807649-.0215973.43194601-.0863892.79910011-.4751406.79910011-1.0150731 0-.5183352-.3671541-.9070866-.79910011-1.0150731-.0647919-.0215973-.1943757-.0215973-.2807649-.0215973H1.94375703v2.0733408z" transform="translate(31.928459 4.115186)"/><path fill="url(#b)" d="M3.95230596.0431946C1.79257593.0431946.0215973 1.79257593.0215973 3.97390326v4.08188977h5.55050619c.1295838 0 .2807649 0 .3887514.0215973 1.25264342.0647919 2.18132734.71271091 2.18132734 1.83577052 0 .88548935-.62632171 1.64139485-1.79257593 1.79257595v.0431946c1.27424072.0863892 2.24611923.7991001 2.24611923 1.9005624 0 1.1878515-1.07986501 1.9653543-2.50528683 1.9653543H0v7.9910012h5.76647919c2.15973003 0 3.93070866-1.7493814 3.93070866-3.9307087V.0431946H3.95230596z" transform="translate(31.928459 4.115186)"/><path fill="url(#c)" d="M5.01057368 10.1723285c0-.51833525-.36715411-.86389205-.79910011-.92868396-.0431946 0-.15118111-.0215973-.21597301-.0215973H1.94375703v1.90056246h2.05174353c.0647919 0 .19437571 0 .21597301-.0215973.431946-.0647919.79910011-.4103487.79910011-.9286839z" transform="translate(31.928459 4.115186)"/><path fill="url(#d)" d="M4.15388076.1583802C1.99415073.1583802.2231721 1.90776153.2231721 4.08908886v9.69718784c1.10146232.5399325 2.24611924.8854893 3.39077616.8854893 1.36062992 0 2.09493813-.8206974 2.09493813-1.943757V8.14938133h3.36917885v4.55703037c0 1.7709786-1.10146232 3.2179977-4.83779527 3.2179977-2.26771654 0-4.03869517-.4967379-4.03869517-.4967379v8.2717661H5.968054c2.15973004 0 3.93070866-1.7493814 3.93070866-3.9307087V.1583802h-5.7448819z" transform="translate(10 4)"/><path fill="url(#e)" d="M15.0173228.1583802c-2.15973 0-3.9307086 1.74938133-3.9307086 3.93070866v5.14015748c.9934758-.84229471 2.7212598-1.38222722 5.5073116-1.25264342 1.4902137.06479191 3.0884139.47514061 3.0884139.47514061v1.66299217c-.7991001-.41034875-1.7493813-.77750285-2.9804274-.86389206-2.1165355-.1511811-3.3907762.88548936-3.3907762 2.69966256 0 1.8357705 1.2742407 2.8724409 3.3907762 2.6996625 1.2310461-.0863892 2.1813273-.4751406 2.9804274-.863892v1.6629921s-1.5766029.4103487-3.0884139.4751406c-2.7860518.1295839-4.5138358-.4103487-5.5073116-1.2526434v9.0708662h5.7664792c2.15973 0 3.9307086-1.7493814 3.9307086-3.9307087V.1583802h-5.7664792z" transform="translate(10 4)"/></g></svg>