<svg xmlns="http://www.w3.org/2000/svg" viewBox="0 0 54 33"><defs/><g fill="none" fill-rule="evenodd"><path fill="#F79F1A" d="M43.0671799 16.2441771c0 5.6564772-4.576813 10.2419588-10.222599 10.2419588-5.645786 0-10.2226004-4.5854816-10.2226004-10.2419588 0-5.65647816 4.5768144-10.24195941 10.2226004-10.24195941 5.645786 0 10.222599 4.58548125 10.222599 10.24195941z"/><path fill="#EA001B" d="M30.4560523 16.2441771c0 5.6564772-4.576813 10.2419588-10.222599 10.2419588-5.645786 0-10.22260037-4.5854816-10.22260037-10.2419588 0-5.65647816 4.57681437-10.24195941 10.22260037-10.24195941s10.222599 4.58548125 10.222599 10.24195941z"/><path fill="#FF5F01" d="M26.5390378 8.18163185c-2.3851911 1.87496961-3.9162627 4.78855888-3.9162627 8.06158555 0 3.2730267 1.5310716 6.1888397 3.9162627 8.0638095 2.385191-1.8749698 3.9162627-4.7907828 3.9162627-8.0638095 0-3.27302667-1.5310717-6.18661594-3.9162627-8.06158555z"/><path fill="#F79F1A" d="M43.04805181 21.81599382v-.5h-.09544292l-.10979054.34385665-.10979055-.34385665h-.09544291v.5h.06737147v-.3771331l.10292864.32508532h.06986671l.10292863-.32593857v.37798635h.06737147zm-.6044718 0v-.41467577h.12226674v-.08447099h-.31128115v.08447099h.12226674v.41467577H42.44358z"/></g></svg>