<svg xmlns="http://www.w3.org/2000/svg" viewBox="0 0 54 33"><defs/><path fill="#fff" d="M34 5.5c-2.9 0-5.2 2.2-5.2 4.9s2.3 4.9 5.2 4.9 5.2-2.2 5.2-4.9-2.4-4.9-5.2-4.9zm0 7.1c-1.2 0-2.2-.9-2.2-2.1s1-2.1 2.2-2.1 2.2.9 2.2 2.1-1 2.1-2.2 2.1zm-6.7-3.4v6.2h-3V9.2c0-.5-.4-.8-.9-.8s-.9.4-.9.8v6.2h-3V9.2c0-.5-.4-.8-.9-.8s-.9.4-.9.8v6.2h-3V9.2c0-2.1 1.7-3.7 3.9-3.7.9 0 1.7.3 2.3.7.7-.5 1.5-.7 2.3-.7 2.4 0 4.1 1.7 4.1 3.7zm6.7 8.4c-2.9 0-5.2 2.2-5.2 4.9s2.3 4.9 5.2 4.9 5.2-2.2 5.2-4.9-2.4-4.9-5.2-4.9zm0 7c-1.2 0-2.2-.9-2.2-2.1s1-2.1 2.2-2.1 2.2.9 2.2 2.1-1 2.1-2.2 2.1zm-6.7-3.3v6.2h-3v-6.2c0-.5-.4-.8-.9-.8s-.9.4-.9.8v6.2h-3v-6.2c0-.5-.4-.8-.9-.8s-.9.4-.9.8v6.2h-3v-6.2c0-2.1 1.7-3.7 3.9-3.7.9 0 1.7.3 2.3.7.7-.5 1.4-.7 2.3-.7 2.4 0 4.1 1.6 4.1 3.7z"/></svg>