<svg xmlns="http://www.w3.org/2000/svg" viewBox="0 0 54 33"><defs/><g fill="none" fill-rule="evenodd"><path fill="#243881" d="M31.2231811 10.20869565c.9884596-.22509317 2.0226794-.26217391 3.0306072-.13956522.6500752.08031056 1.2879076.23664597 1.9034621.44590063-.1892624.81931677-.3777221 1.63863354-.5681887 2.45757764-.7765178-.33093168-1.6234822-.52304348-2.4780732-.54652174-.4295033-.00913044-.8690417.01565217-1.2750628.15614906-.2446563.08515528-.4786753.21782609-.6364275.41496895-.1324636.16360248-.1996989.37937888-.1487205.58173913.0447567.18242236.1750126.33503106.3215254.45875776.2607125.21559007.5679879.37434783.8724535.52993789.683994.34080745 1.3912695.65496895 2.0044155 1.10291926.5236327.3752795.9693929.87130434 1.1696939 1.46440993.1635725.46881988.1709985.97304348.0949323 1.4573292-.0909182.57745341-.3369794 1.13440993-.7195183 1.59819876-.4493728.5513665-1.072554.9646584-1.7489212 1.2441615-.7819368.3244099-1.6343202.4807453-2.4857.5329192-.9599599.054969-1.9259408-.0281366-2.8668339-.2086956-.46001-.0939131-.9184145-.2079503-1.3485198-.3890683.1952835-.8461491.3895634-1.69229817.5844455-2.53844724.3955846.17180124.793979.34136646 1.2116408.46192547.4786753.1410559.9764174.22416149 1.4773708.25472049.4582037.02478261.9250376.0326087 1.3738083-.07062112.3536377-.08012422.7112895-.21838509.9555444-.47832298.2358254-.24652174.3020572-.62291925.1527346-.92347826-.1210236-.23496894-.3432012-.40621118-.567988-.55322981-.3405921-.21838509-.7118916-.39037267-1.0819869-.5604969-.732564-.33726708-1.4528851-.73621118-2.0036127-1.30677018-.4082288-.42-.6964375-.95124224-.7542398-1.51863354-.0588058-.60242236.0610135-1.22012423.3466131-1.76422361.2139488-.41049689.5222278-.77590062.8875063-1.08.6466633-.540559 1.4583041-.88751552 2.2970396-1.08354037z"/><path fill="#192164" d="M7.07686904 10.2126087c1.81414952-.00130435 3.62809835-.00037268 5.44204717-.00074535.15614651-.00074534.31309583.01229814.46362268.05236025.32072252.08068323.60812845.26757764.80100351.5189441.14450577.18596274.23843452.40360249.28359257.62850932.29643753 1.46217391.59267436 2.92434782.88911189 4.38652174.15694933.76677018.30767687 1.53484472.46904165 2.30086956 1.12192674-2.62807453 2.24184649-5.25708074 3.36036129-7.88645962 1.131159-.00223603 2.2623181-.00093168 3.3934771-.00074535-1.7451078 3.86459628-3.4894129 7.72975156-5.23532359 11.59416145-1.13657802 0-2.27315604-.0026087-3.40973407.0013044-.85137983-3.04043479-1.69453086-6.08273293-2.54249874-9.12372672-.07626694-.26124223-.13567487-.53534161-.30065229-.76360248-.17099849-.23534161-.45298545-.36596273-.7189162-.48857143-.65368791-.28900621-1.34611139-.49416149-2.04274963-.6726708-.30747616-.0767702-.61675865-.14720498-.92784746-.21074535.0240843-.11198757.05178123-.22322981.07546412-.33540372z"/><path fill="#28327B" d="M23.4046162 10.91248447c.0549924-.23403727.1059709-.4690062.1635725-.70248447 1.0757651.00335404 2.151731-.00018634 3.2274962.00167702-.8909182 3.86440994-1.7812343 7.72919255-2.6715504 11.59378878-1.0767687.0009317-2.1535374 0-3.2303061.0003727.8375314-3.631118 1.6738585-7.26223602 2.5107878-10.89335403z"/><path fill="#344490" d="M40.2439538 11.05130435c.2147517-.48652174.7502258-.8316149 1.3180131-.83869565.9368791-.00465839 1.8737581-.00130435 2.8104365-.00186336.8700452 3.86515528 1.7388861 7.7304969 2.6081285 11.59583856-.9960863.0007453-1.9921726-.0001864-2.9880582.0001863-.1324637-.5767081-.2613146-1.1543478-.3923733-1.7314286-1.3806323-.0007453-2.7610638.0001864-4.1414953-.0007453-.2255895.5765217-.4515805 1.1530435-.6741595 1.7304969-1.130557.002795-2.2613146.0013043-3.3918716.000559 1.616859-3.58490686 3.2333166-7.17000003 4.8513798-10.75434785zm.1439037 6.64453416c.8925238.00074534 1.7852484.00018633 2.6777722.00018633-.3261415-1.44913043-.6512795-2.89826086-.977421-4.3473913-.5697942 1.44801242-1.1335675 2.89826087-1.7003512 4.34720497z"/></g></svg>